<svg viewBox="0 0 94 94" version="1.1" xmlns="http://www.w3.org/2000/svg" xmlns:xlink="http://www.w3.org/1999/xlink" id="el_edDO3vIfO"><style>@-webkit-keyframes kf_el_N7ePeNmp0__an_ZGBoQuE7n{33.33%{opacity: 0;}100%{opacity: 1;}0%{opacity: 0;}}@keyframes kf_el_N7ePeNmp0__an_ZGBoQuE7n{33.33%{opacity: 0;}100%{opacity: 1;}0%{opacity: 0;}}@-webkit-keyframes kf_el_ab0hU896pQ_an_q1dJYp5TU{0%{opacity: 0.1;}100%{opacity: 1;}}@keyframes kf_el_ab0hU896pQ_an_q1dJYp5TU{0%{opacity: 0.1;}100%{opacity: 1;}}#el_edDO3vIfO *{-webkit-animation-duration: 3s;animation-duration: 3s;-webkit-animation-iteration-count: infinite;animation-iteration-count: infinite;-webkit-animation-timing-function: cubic-bezier(0, 0, 1, 1);animation-timing-function: cubic-bezier(0, 0, 1, 1);}#el_w6jrijRTCr{stroke: none;stroke-width: 1;fill: none;}#el__-GH5ib83_{-webkit-transform: translate(-3px, -3px);transform: translate(-3px, -3px);}#el_FTeTFVMfbU{-webkit-transform: translate(0px, 100px) scale(-1, 1) rotate(-180deg);transform: translate(0px, 100px) scale(-1, 1) rotate(-180deg);}#el_dXm7qwfZGA{-webkit-transform: translate(3.611111px, 3.611111px);transform: translate(3.611111px, 3.611111px);}#el_U_qJ1t3PQX{-webkit-transform: translate(0.033454px, 0.059139px);transform: translate(0.033454px, 0.059139px);}#el_N7ePeNmp0_{fill: rgb(255, 255, 255);-webkit-animation-fill-mode: backwards;animation-fill-mode: backwards;opacity: 0;-webkit-animation-name: kf_el_N7ePeNmp0__an_ZGBoQuE7n;animation-name: kf_el_N7ePeNmp0__an_ZGBoQuE7n;-webkit-animation-timing-function: cubic-bezier(0, 0, 1, 1);animation-timing-function: cubic-bezier(0, 0, 1, 1);}#el_xbIG-Fpe2J{-webkit-transform: translate(3.52625px, 3.488139px);transform: translate(3.52625px, 3.488139px);}#el_ab0hU896pQ{fill: rgb(255, 255, 255);-webkit-animation-fill-mode: backwards;animation-fill-mode: backwards;opacity: 0.1;-webkit-animation-name: kf_el_ab0hU896pQ_an_q1dJYp5TU;animation-name: kf_el_ab0hU896pQ_an_q1dJYp5TU;-webkit-animation-timing-function: cubic-bezier(0, 0, 1, 1);animation-timing-function: cubic-bezier(0, 0, 1, 1);}</style>
    <!-- Generator: Sketch 48.2 (47327) - http://www.bohemiancoding.com/sketch -->
    <desc>Created with Sketch.</desc>
    <defs>
        <polygon id="path-1" points="0 99.9999975 99.9999975 99.9999975 99.9999975 0 0 0"/>
    </defs>
    <g id="el_w6jrijRTCr" fill-rule="evenodd">
        <g id="el__-GH5ib83_">
            <g id="el_FTeTFVMfbU">
                <g id="el_furhF7Na6i">
                    <g id="el_lKBzwVTj48">
                        <mask id="mask-2" fill="white">
                            <use xlink:href="#path-1"/>
                        </mask>
                        <g id="el_bKX4TzTu-q"/>
                        <g id="el_KDugk9t115" mask="url(#mask-2)">
                            <g id="el_dXm7qwfZGA">
                                <g id="el_U_qJ1t3PQX">
                                    <path d="M77.8703684,14.8148144 C69.4524983,6.39694428 58.2601837,1.76092588 46.3554618,1.76092588 C34.4507399,1.76092588 23.2584253,6.39694428 14.8404626,14.8148144 C6.42259243,23.2327772 1.78657403,34.4249991 1.78657403,46.3297211 C1.78657403,58.2345356 6.42259243,69.4267575 14.8404626,77.8447203 C23.2584253,86.2625904 34.4507399,90.8986088 46.3554618,90.8986088 C58.2601837,90.8986088 69.4524983,86.2625904 77.8703684,77.8447203 C86.2882386,69.4267575 90.924257,58.2345356 90.924257,46.3297211 C90.924257,34.4249991 86.2882386,23.2327772 77.8703684,14.8148144 M79.0918499,79.0661091 C70.3476834,87.8103682 58.7215726,92.6260162 46.3554618,92.6260162 C33.9892584,92.6260162 22.3631476,87.8103682 13.6189811,79.0662017 C4.87481469,70.3219427 0.0591666652,58.6959245 0.0591666652,46.3297211 C0.0591666652,33.9637029 4.87481469,22.337592 13.6189811,13.5934256 C22.3631476,4.84916655 33.9892584,0.0334259251 46.3554618,0.0334259251 C58.7215726,0.0334259251 70.3476834,4.84916655 79.0918499,13.593333 C87.8361089,22.337592 92.6517569,33.9637029 92.6517569,46.3297211 C92.6517569,58.6959245 87.8361089,70.3219427 79.0918499,79.0661091" id="el_N7ePeNmp0_" fill-rule="nonzero"/>
                                </g>
                                <g id="el_xbIG-Fpe2J">
                                    <path d="M1.75925922,42.037036 C1.75342588,42.324536 1.74879625,42.6123137 1.74879625,42.9007397 C1.74879625,43.1892582 1.75342588,43.4769434 1.75925922,43.7644434 L83.9660164,43.7644434 C83.9718498,43.4769434 83.976572,43.1892582 83.976572,42.9007397 C83.976572,42.6123137 83.9718498,42.324536 83.9660164,42.037036 L1.75925922,42.037036 Z M77.7371277,21.1015735 L64.8885169,21.1015735 C65.0487021,21.6714809 65.2023132,22.2473143 65.3493502,22.8290735 L78.7631462,22.8290735 C78.4358314,22.2456476 78.0937943,21.6697217 77.7371277,21.1015735 Z M71.9935167,13.8892589 C71.992776,13.8881478 71.9921278,13.8870367 71.9913871,13.8860182 C71.0669427,12.9576849 70.1039797,12.0821293 69.1095353,11.2547219 C68.6716649,11.1434256 68.2061094,11.101759 67.7253687,11.143796 C65.6999984,11.3201849 64.0863873,12.9772219 63.9622206,15.0065737 C63.8868503,16.2376848 64.3534243,17.3630551 65.1455539,18.1668514 C65.9219428,18.9546292 66.9976835,19.3740736 68.103702,19.3740736 C68.9321279,19.3740736 69.7512946,19.1440736 70.4336094,18.6742588 C71.5176834,17.9276847 72.2297204,16.6783329 72.2297204,15.26537 C72.2297204,14.7829626 72.1458315,14.3200922 71.9935167,13.8892589 Z M66.0254613,8.92287015 C63.7699984,7.37870352 61.3791651,6.070648 58.8821282,5.01453691 C58.7148133,5.46787023 58.6265726,5.94981467 58.6265726,6.44685169 C58.6265726,6.58898132 58.6338874,6.72944428 58.6478689,6.8678702 C59.2682393,7.80870351 59.8673133,8.807222 60.4407392,9.86861086 C61.103517,10.3201849 61.903517,10.5845368 62.7642577,10.5845368 C64.070554,10.5845368 65.2732391,9.9831479 66.054165,8.95759237 C66.0455539,8.94666644 66.0347206,8.93425904 66.0254613,8.92287015 Z M49.7799062,2.36444439 C52.7604616,4.41259248 55.5086097,7.78657388 57.8371282,12.3393515 C61.6892577,19.8709254 63.9313873,29.7269437 64.2284243,40.309536 L65.9567576,40.309536 C65.6573132,29.4547215 63.3476836,19.3199995 59.3750911,11.5526849 C57.6130541,8.10759239 55.6052764,5.28851839 53.4232394,3.15138881 C52.2249061,2.83518511 51.0098135,2.5716666 49.7799062,2.36444439 Z M48.5502766,6.44685169 C48.5502766,8.72842571 50.4064802,10.5845368 52.6880542,10.5845368 C53.3724061,10.5845368 54.0179616,10.4164812 54.5872209,10.1211109 C52.9451839,7.53787018 51.1528691,5.52064801 49.269721,4.11842582 C48.8161099,4.78212951 48.5502766,5.58398134 48.5502766,6.44685169 Z M58.9056467,19.3057403 C58.1472208,17.1081477 57.2771282,15.0380552 56.2991653,13.1259256 C56.0814801,12.7003701 55.8599986,12.2871293 55.6354616,11.8840738 C54.5735172,12.633796 53.8779616,13.8695367 53.8779616,15.26537 C53.8779616,17.2326848 55.2584245,18.8828699 57.1013875,19.3001847 C57.3328689,19.3526847 57.5703689,19.3740736 57.8077763,19.3740736 L58.2274985,19.3740736 C58.4537948,19.3740736 58.6804615,19.3550921 58.9015726,19.3066662 L58.9056467,19.3057403 Z M45.4538878,21.1015735 L45.4538878,22.8290735 L59.9953689,22.8290735 C59.8348133,22.246018 59.6672207,21.6698143 59.4921281,21.1015735 L45.4538878,21.1015735 Z M45.4538878,11.9599071 L45.4538878,18.5709255 C45.4946285,18.6016662 45.53611,18.6317588 45.5780544,18.6610181 C46.2630544,19.1387032 47.0880544,19.3740736 47.9232395,19.3740736 L47.9484247,19.3740736 C48.8399062,19.3740736 49.7180543,19.1046292 50.429258,18.5673144 C51.5343506,17.7324996 52.2090728,16.3568514 52.0555543,14.8372219 C51.8579617,12.881296 50.2724062,11.3175923 48.3141655,11.144259 C47.2387951,11.0491664 46.2383322,11.3685182 45.4538878,11.9599071 Z M45.4538878,3.44379621 L45.4538878,9.44990717 C46.2508322,8.69518497 46.7495359,7.62851833 46.7495359,6.44685169 C46.7495359,5.26518505 46.2508322,4.19851841 45.4538878,3.44379621 Z M43.7263878,1.79740736 C43.4387952,1.79157403 43.15111,1.78685181 42.8626841,1.78685181 C42.5741656,1.78685181 42.2863878,1.79157403 41.9988878,1.79740736 L41.9988878,40.309536 L43.7263878,40.309536 L43.7263878,1.79740736 Z M40.2714805,21.1015735 L26.2331475,21.1015735 C26.0581475,21.6698143 25.8904623,22.246018 25.7299068,22.8290735 L40.2714805,22.8290735 L40.2714805,21.1015735 Z M40.2714805,12.2628701 C39.4694435,11.5031479 38.3653694,11.0594442 37.1598139,11.136296 C35.0973139,11.2677775 33.4278695,12.9393515 33.299351,15.0019441 C33.2087955,16.4560181 33.8741658,17.7629625 34.939351,18.5674069 C35.6505547,19.1047217 36.5286102,19.3740736 37.4199065,19.3740736 L37.4493509,19.3740736 C38.2162953,19.3740736 38.9766657,19.1776847 39.6258323,18.7690736 C39.8574064,18.6233329 40.0736101,18.4552773 40.2714805,18.2678699 L40.2714805,12.2628701 Z M40.2714805,3.03703696 C39.1868509,3.78370361 38.4741657,5.03333321 38.4741657,6.44685169 C38.4741657,7.86027758 39.1868509,9.10981459 40.2714805,9.85657383 L40.2714805,3.03703696 Z M36.1167584,4.37805545 C34.314814,5.79898134 32.600277,7.78703684 31.0262955,10.2983331 C31.4942585,10.4823146 32.0030548,10.5845368 32.5355547,10.5845368 C34.8171288,10.5845368 36.6733324,8.72842571 36.6733324,6.44685169 C36.6733324,5.69351838 36.4699065,4.9871295 36.1167584,4.37805545 Z M26.8200919,19.3029625 C26.8413882,19.3328699 26.8494438,19.3441662 26.8707401,19.3740736 L27.3273141,19.3740736 C28.5049993,19.3740736 29.6468511,18.9009255 30.43324,18.0242588 C31.090277,17.2918514 31.4903696,16.3246292 31.4903696,15.26537 C31.4903696,13.9824997 30.9034252,12.8338886 29.9839807,12.0743515 C29.7956474,12.4171293 29.6095363,12.7673145 29.4261104,13.1260182 C28.4485178,15.037407 27.5783326,17.1062959 26.8200919,19.3029625 Z M32.3020362,3.15138881 C30.1200918,5.28851839 28.1122215,8.10759239 26.3501845,11.5526849 C22.377592,19.3199995 20.0679625,29.4547215 19.7686106,40.309536 L21.4968513,40.309536 C21.7938883,29.7269437 24.0361105,19.8709254 27.8880549,12.3393515 C30.2166659,7.78657388 32.964814,4.41259248 35.9453695,2.36444439 C34.7154621,2.5716666 33.5003695,2.83518511 32.3020362,3.15138881 Z M26.4086105,5.20388876 C23.9373142,6.28314799 21.5721291,7.60898129 19.3432403,9.16981459 C20.1198143,10.0585183 21.2493513,10.5845368 22.4594439,10.5845368 C24.7408327,10.5845368 26.5970364,8.72842571 26.5970364,6.44685169 C26.5970364,6.01824059 26.5331475,5.60092579 26.4086105,5.20388876 Z M16.7237033,11.1656479 C15.7114811,12.0023145 14.7312959,12.888333 13.790833,13.8288885 C13.6014811,14.0181478 13.4150923,14.2097219 13.2299997,14.4019441 C13.1705552,14.6807404 13.1387034,14.9693515 13.1387034,15.26537 C13.1387034,16.6779625 13.85037,17.9270366 14.9340737,18.6737032 C15.6167589,19.1440736 16.4365737,19.3740736 17.2656477,19.3740736 L17.2872218,19.3740736 C18.1162958,19.3740736 18.9361106,19.1440736 19.6187958,18.6737032 C20.7024069,17.9270366 21.4140735,16.6779625 21.4140735,15.26537 C21.4140735,12.9838886 19.5579625,11.1277775 17.276481,11.1277775 C17.0889811,11.1277775 16.9046292,11.1413886 16.7237033,11.1656479 Z M7.98814795,21.1015735 C7.63148129,21.6697217 7.28944426,22.2456476 6.96212946,22.8290735 L20.3759254,22.8290735 C20.5229624,22.2473143 20.6765736,21.6714809 20.8367587,21.1015735 L7.98814795,21.1015735 Z M7.98814795,64.6999058 L20.9344439,64.6999058 C20.7709254,64.1299058 20.6129624,63.554628 20.4625921,62.9724058 L6.96212946,62.9724058 C7.28944426,63.5558317 7.63148129,64.1318502 7.98814795,64.6999058 Z M40.2714805,64.6999058 L40.2714805,62.9724058 L25.8268512,62.9724058 C25.9912031,63.5557392 26.1628697,64.1317577 26.3417586,64.6999058 L40.2714805,64.6999058 Z M32.805277,82.7824979 C34.0696288,83.0988868 35.3526843,83.354535 36.6507398,83.5500905 C33.3981473,81.5671276 30.3992585,78.0264795 27.8880549,73.1166648 C24.078055,65.667128 21.8433328,55.9434245 21.5075921,45.4919433 L19.7794439,45.4919433 C20.1177773,56.2161097 22.4198143,66.2185169 26.3501845,73.9033315 C28.2468511,77.6118499 30.4284252,80.5947202 32.805277,82.7824979 Z M41.9988878,84.004072 C42.2863878,84.0099979 42.5741656,84.0146275 42.8626841,84.0146275 C43.15111,84.0146275 43.4387952,84.0099979 43.7263878,84.004072 L43.7263878,45.4919433 L41.9988878,45.4919433 L41.9988878,84.004072 Z M45.4538878,64.6999058 L59.383517,64.6999058 C59.5624985,64.1317577 59.7340726,63.5557392 59.8984244,62.9724058 L45.4538878,62.9724058 L45.4538878,64.6999058 Z M52.9199987,82.7824979 C55.2969431,80.5947202 57.4783319,77.6118499 59.3750911,73.9033315 C63.305554,66.2185169 65.6074984,56.2161097 65.9458317,45.4919433 L64.2176836,45.4919433 C63.8819428,55.9434245 61.6473133,65.667128 57.8371282,73.1166648 C55.3260171,78.0264795 52.3271283,81.5671276 49.0745358,83.5500905 C50.3725913,83.354535 51.6556469,83.0988868 52.9199987,82.7824979 Z M77.7371277,64.6999058 C78.0937943,64.1318502 78.4358314,63.5558317 78.7631462,62.9724058 L65.2626836,62.9724058 C65.1123132,63.554628 64.9543502,64.1299058 64.7908317,64.6999058 L77.7371277,64.6999058 Z M73.1559241,73.1941648 C65.0644428,81.2858313 54.3059246,85.7421275 42.8626841,85.7421275 C31.4193511,85.7421275 20.6609254,81.2858313 12.5692589,73.1941648 C4.47759248,65.1024984 0.0212962958,54.3440727 0.0212962958,42.9007397 C0.0212962958,31.4574066 4.47759248,20.698981 12.5692589,12.6074071 C20.6609254,4.51574063 31.4193511,0.059444443 42.8626841,0.059444443 C54.3059246,0.059444443 65.0644428,4.51574063 73.1559241,12.6074071 C81.2475906,20.698981 85.7039793,31.4574066 85.7039793,42.9007397 C85.7039793,54.3440727 81.2475906,65.1024984 73.1559241,73.1941648 Z" id="el_ab0hU896pQ" fill-rule="nonzero"/>
                                </g>
                            </g>
                        </g>
                    </g>
                </g>
            </g>
        </g>
    </g>
</svg>